<?xml version="1.0" standalone="no"?>
<!DOCTYPE svg PUBLIC "-//W3C//DTD SVG 20010904//EN"
 "http://www.w3.org/TR/2001/REC-SVG-20010904/DTD/svg10.dtd">
<svg version="1.0" xmlns="http://www.w3.org/2000/svg"
 width="960.000000pt" height="960.000000pt" viewBox="0 0 960.000000 960.000000"
 preserveAspectRatio="xMidYMid meet">

<g transform="translate(0.000000,960.000000) scale(0.100000,-0.100000)"
fill="#000000" stroke="none">
<path d="M1890 4891 l0 -1788 248 -6 c154 -3 286 -11 352 -22 426 -67 828
-205 1211 -415 158 -86 259 -151 470 -301 271 -194 418 -252 639 -253 147 0
231 19 375 88 92 45 130 70 328 213 223 162 606 371 842 459 419 156 807 233
1189 235 l176 1 0 1789 0 1789 -72 -6 c-849 -66 -1565 -283 -2216 -671 l-143
-85 4 -1682 c2 -924 2 -1699 0 -1721 -4 -34 -12 -45 -56 -78 -133 -97 -269
-142 -432 -142 -161 1 -259 34 -412 137 l-73 49 0 1717 0 1717 -112 72 c-492
314 -1171 553 -1823 642 -130 18 -442 51 -482 51 -11 0 -13 -301 -13 -1789z"/>
<path d="M4822 5635 c-26 -22 -30 -23 -44 -9 -23 24 -86 20 -112 -5 -18 -19
-21 -35 -24 -126 l-4 -105 171 0 171 0 0 73 c-1 97 -14 147 -45 175 -34 29
-76 28 -113 -3z m86 -112 l3 -53 -40 0 c-40 0 -41 1 -41 36 0 52 16 76 48 72
25 -3 27 -7 30 -55z m-150 35 c7 -7 12 -29 12 -50 0 -37 -1 -38 -35 -38 -34 0
-35 1 -35 38 0 38 14 62 35 62 6 0 16 -5 23 -12z"/>
<path d="M4640 5280 l0 -40 125 0 c137 0 145 -4 145 -68 0 -53 -23 -62 -153
-62 l-117 0 0 -40 0 -40 116 0 c133 0 171 12 204 65 26 42 27 119 1 161 -31
51 -73 64 -205 64 l-116 0 0 -40z"/>
<path d="M4634 4946 c-3 -8 -4 -23 -2 -33 3 -15 15 -19 71 -21 l67 -3 0 -69 0
-70 -65 0 -65 0 0 -40 0 -40 165 0 165 0 0 40 0 40 -65 0 -65 0 0 70 0 70 65
0 65 0 0 35 0 35 -165 0 c-135 0 -167 -3 -171 -14z"/>
<path d="M4630 4606 c0 -40 9 -50 80 -96 l51 -33 -60 -38 c-58 -37 -61 -40
-61 -79 0 -22 2 -40 4 -40 3 0 47 27 99 60 92 59 94 60 165 60 l72 0 0 35 0
35 -74 0 -75 0 -97 65 c-54 36 -99 65 -101 65 -2 0 -3 -15 -3 -34z"/>
<path d="M4705 4291 c-49 -21 -60 -47 -63 -157 l-4 -104 166 0 166 0 0 35 0
34 -57 3 c-50 3 -58 6 -61 24 -2 17 10 29 60 59 60 35 64 39 65 76 1 21 -2 39
-6 39 -4 0 -34 -18 -66 -41 -44 -31 -60 -37 -66 -27 -5 7 -9 16 -9 19 0 25
-92 53 -125 40z m75 -90 c5 -11 10 -38 10 -60 l0 -41 -45 0 -45 0 0 44 c0 48
19 76 50 76 11 0 24 -9 30 -19z"/>
<path d="M4803 3922 l-163 -66 0 -37 0 -36 108 -46 c108 -46 210 -87 216 -87
2 0 6 10 9 22 8 29 -7 54 -38 62 -24 6 -25 10 -25 80 0 73 0 74 30 85 27 9 30
14 30 50 0 23 -1 41 -2 40 -2 0 -76 -30 -165 -67z m47 -108 c0 -25 -3 -44 -8
-42 -4 2 -28 11 -55 22 -26 10 -47 22 -47 25 0 7 76 38 98 40 8 1 12 -14 12
-45z"/>
<path d="M4704 3611 c-12 -5 -31 -22 -43 -37 -18 -23 -21 -40 -21 -125 l0 -99
171 0 170 0 -3 38 c-2 24 -8 37 -18 38 -8 1 -36 2 -62 2 -41 2 -46 4 -41 22 3
11 22 30 42 42 66 39 81 57 74 92 -3 17 -7 32 -8 34 -2 2 -28 -13 -59 -34
l-57 -37 -27 32 c-29 34 -80 48 -118 32z m74 -83 c7 -7 12 -33 12 -59 l0 -47
-42 3 c-41 3 -43 4 -46 39 -2 19 2 44 8 56 12 22 49 27 68 8z"/>
<path d="M4823 3264 c-23 -23 -27 -24 -42 -10 -18 16 -66 21 -96 10 -30 -12
-45 -60 -45 -147 l0 -84 38 -7 c48 -8 182 -8 250 0 l52 7 0 71 c0 85 -12 131
-42 163 -30 32 -81 31 -115 -3z m87 -111 l6 -53 -43 0 c-43 0 -43 0 -43 36 0
52 16 76 48 72 25 -3 27 -8 32 -55z m-152 35 c7 -7 12 -29 12 -50 0 -37 -1
-38 -35 -38 -34 0 -35 1 -35 38 0 38 14 62 35 62 6 0 16 -5 23 -12z"/>
<path d="M4640 2910 l0 -40 164 0 164 0 4 35 c2 20 2 38 -1 40 -2 3 -78 5
-168 5 l-163 0 0 -40z"/>
<path d="M4908 2736 l-3 -79 -132 2 -133 2 0 -41 0 -40 166 2 165 3 5 111 6
112 -36 4 -35 4 -3 -80z"/>
</g>
</svg>
