<?xml version="1.0" standalone="no"?>
<!DOCTYPE svg PUBLIC "-//W3C//DTD SVG 20010904//EN"
 "http://www.w3.org/TR/2001/REC-SVG-20010904/DTD/svg10.dtd">
<svg version="1.0" xmlns="http://www.w3.org/2000/svg"
 width="960.000000pt" height="960.000000pt" viewBox="0 0 960.000000 960.000000"
 preserveAspectRatio="xMidYMid meet">

<g transform="translate(0.000000,960.000000) scale(0.100000,-0.100000)"
fill="#000000" stroke="none">
<path d="M0 4800 l0 -4800 4800 0 4800 0 0 4800 0 4800 -4800 0 -4800 0 0
-4800z m6888 2712 c67 -36 129 -98 159 -161 l28 -56 0 -520 c0 -495 -1 -523
-20 -574 -26 -70 -101 -153 -168 -185 l-52 -25 -835 -3 -835 -2 -56 26 c-72
33 -134 94 -168 167 l-26 56 0 530 c0 522 0 531 22 577 39 85 125 162 213 189
14 4 401 7 860 6 l835 -2 43 -23z m-3340 -728 c231 -30 482 -97 699 -186 128
-53 351 -169 406 -213 l32 -24 1 -416 c0 -280 -3 -418 -10 -424 -6 -4 -37 -16
-68 -26 l-57 -19 -60 57 c-33 32 -69 57 -80 57 -12 0 -49 -25 -84 -56 -93 -84
-117 -112 -117 -137 0 -12 20 -51 45 -85 l44 -64 -37 -71 -38 -72 -78 -5
c-109 -7 -116 -17 -116 -162 0 -102 1 -110 25 -133 20 -21 34 -25 88 -25 75 0
89 -9 112 -73 10 -26 22 -50 26 -53 17 -10 8 -36 -31 -91 -55 -77 -53 -96 18
-164 81 -78 121 -109 142 -109 10 0 43 23 73 50 30 28 61 50 69 50 8 0 42 -9
76 -21 l61 -20 -1 -270 c-1 -148 -4 -268 -7 -267 -152 75 -243 118 -330 153
-365 150 -825 251 -1268 281 l-103 7 0 1200 c0 1200 0 1201 21 1244 22 46 64
83 114 102 38 14 272 6 433 -15z m-788 -1604 l0 -1150 138 0 c231 0 513 -28
707 -71 267 -59 452 -113 675 -199 30 -12 138 -63 239 -113 l185 -92 100 0
101 0 140 72 c394 200 785 318 1255 378 132 17 504 37 526 28 12 -4 14 137 14
863 l0 869 58 17 c34 10 85 37 120 63 l62 45 0 -968 c0 -644 -4 -980 -11
-1005 -13 -49 -61 -103 -102 -116 -18 -5 -140 -12 -272 -14 -546 -12 -1068
-133 -1497 -348 -175 -88 -233 -103 -388 -103 -160 -1 -216 12 -362 85 -363
181 -736 292 -1158 344 -69 8 -233 18 -365 21 -132 3 -255 7 -273 10 -40 6
-100 57 -118 101 -21 49 -20 2245 0 2294 35 84 108 134 204 138 l22 1 0 -1150z
m2198 679 c48 -42 127 -78 199 -89 33 -6 363 -10 761 -10 l702 0 0 -754 0
-754 -107 -7 c-499 -32 -1079 -179 -1480 -377 -60 -29 -111 -54 -116 -56 -4
-2 -6 118 -5 268 l3 271 55 19 c30 11 62 19 70 20 8 0 41 -23 73 -50 32 -28
68 -50 80 -50 30 0 197 158 197 186 0 11 -19 49 -41 82 l-42 62 35 78 35 77
77 5 c104 7 106 10 106 161 0 115 -1 118 -26 138 -21 17 -41 21 -93 21 l-67 0
-36 74 -37 74 44 64 c25 34 45 73 45 85 0 25 -24 53 -117 137 -35 31 -72 56
-83 56 -10 0 -47 -25 -81 -55 -34 -30 -64 -55 -68 -55 -3 0 -33 9 -66 19 l-60
19 -3 186 c-1 102 0 186 4 186 3 0 22 -14 42 -31z m-268 -928 c0 -180 -3 -330
-6 -333 -9 -10 -91 41 -134 84 -137 138 -138 360 -2 501 37 39 121 89 135 80
4 -2 7 -152 7 -332z m357 251 c23 -23 54 -68 70 -100 25 -50 28 -68 28 -152 0
-84 -3 -101 -28 -150 -33 -64 -95 -131 -154 -165 -23 -14 -44 -25 -47 -25 -8
0 -7 665 0 673 11 11 86 -35 131 -81z m-2697 -2182 c53 -53 -14 -147 -87 -119
-54 20 -69 75 -31 116 28 30 89 32 118 3z m5169 4 l31 -6 0 -149 0 -148 52 32
c49 31 56 32 152 32 116 0 139 -9 217 -82 65 -60 89 -125 89 -237 0 -72 -4
-91 -30 -144 -50 -99 -136 -160 -241 -169 -85 -8 -143 4 -199 42 l-50 34 0
-35 0 -34 -70 0 -70 0 0 429 0 430 28 4 c47 7 59 7 91 1z m-4839 -171 l0 -167
21 23 c41 44 117 71 200 71 65 0 85 -4 137 -31 68 -33 100 -66 140 -143 23
-44 26 -63 26 -141 0 -105 -20 -158 -86 -226 -62 -63 -116 -84 -223 -84 -99 0
-134 12 -192 68 l-33 31 0 -52 0 -52 -42 0 c-24 0 -47 4 -53 8 -6 4 -9 158 -7
435 l3 427 54 0 55 0 0 -167z m-1000 119 c6 -1 10 -128 10 -357 l0 -355 215 0
215 0 0 -55 0 -55 -277 2 -278 3 -3 400 c-1 220 0 405 2 411 3 8 75 12 116 6z
m4140 -157 l0 -165 210 0 210 0 2 163 3 162 78 3 77 3 0 -411 0 -410 -80 0
-80 0 -2 173 -3 172 -45 3 c-25 2 -118 1 -207 -3 l-163 -7 0 -169 0 -169 -80
0 -80 0 0 403 c0 222 3 407 7 410 3 4 39 7 80 7 l73 0 0 -165z m-2130 -84 l0
-59 -54 -4 c-65 -5 -114 -38 -142 -95 -16 -33 -19 -64 -20 -228 l-2 -190 -53
0 -54 0 -3 313 -2 312 55 0 55 0 0 -46 0 -47 24 26 c30 32 76 56 129 67 69 13
67 15 67 -49z m519 21 c43 -22 60 -38 85 -82 l31 -55 3 -232 4 -233 -40 0
c-61 0 -72 7 -72 47 l0 36 -26 -26 c-42 -42 -102 -60 -186 -55 -138 7 -218 72
-218 177 0 60 17 98 60 135 47 39 119 52 314 55 l49 1 -6 45 c-8 78 -64 118
-162 119 -55 0 -93 -13 -187 -62 -6 -3 -48 69 -48 82 0 3 20 17 44 31 102 60
257 67 355 17z m661 -22 l0 -60 -42 0 c-58 0 -107 -27 -143 -78 l-30 -44 -3
-199 -4 -200 -56 3 c-38 2 -57 7 -56 16 1 6 2 147 3 312 l1 300 55 0 55 0 0
-46 0 -47 24 26 c28 30 72 54 123 66 73 17 73 17 73 -49z m174 -2 c15 -35 64
-148 109 -252 l81 -190 39 85 c21 46 68 156 105 244 36 88 66 161 66 161 3 6
116 11 116 5 0 -7 -176 -418 -287 -669 -60 -136 -136 -202 -234 -202 -33 0
-114 26 -146 47 l-22 15 25 48 25 49 36 -25 c42 -28 107 -32 141 -8 12 8 34
38 48 66 l26 51 -20 51 c-11 28 -72 169 -136 313 -64 145 -116 265 -116 268 0
3 26 5 58 5 l59 0 27 -62z m1703 -146 c3 -223 9 -249 63 -277 45 -23 130 -20
170 8 68 45 75 70 78 285 l4 192 74 0 74 0 0 -315 0 -315 -75 0 -75 0 0 37 0
37 -28 -27 c-78 -75 -252 -75 -349 -1 -20 15 -46 50 -62 83 -25 54 -26 64 -29
264 -2 115 -1 215 2 223 4 12 22 14 78 12 l73 -3 2 -203z m-4397 -117 l0 -315
-55 0 c-54 0 -54 0 -61 34 -4 24 1 553 6 594 0 1 25 2 55 2 l55 0 0 -315z"/>
<path d="M5237 7295 c-21 -7 -40 -15 -41 -17 -1 -1 -12 -16 -24 -32 -22 -29
-22 -31 -22 -482 l0 -453 31 -36 c17 -19 47 -40 67 -45 25 -8 275 -10 774 -8
l738 3 37 38 38 37 3 459 3 459 -28 32 c-52 62 -24 60 -815 60 -584 -1 -730
-3 -761 -15z m820 -220 c50 -21 72 -42 94 -90 42 -92 8 -190 -83 -236 -47 -24
-91 -24 -144 0 -134 61 -136 253 -2 320 51 25 85 26 135 6z m88 -444 c27 -12
64 -33 83 -48 35 -26 92 -107 92 -130 0 -10 -64 -13 -325 -13 -195 0 -325 4
-325 9 0 69 117 173 227 201 62 15 193 5 248 -19z"/>
<path d="M3264 6551 c-17 -10 -36 -34 -43 -52 -8 -23 -11 -309 -11 -1014 l0
-982 23 -34 c12 -19 36 -40 51 -48 42 -20 101 0 126 42 19 31 20 58 20 1034
l0 1003 -27 30 c-37 41 -94 50 -139 21z"/>
<path d="M5851 5529 c-59 -8 -91 -44 -91 -102 0 -44 20 -77 57 -96 14 -7 105
-11 263 -11 l242 0 34 34 c27 27 34 42 34 73 0 42 -19 76 -53 95 -23 13 -401
19 -486 7z"/>
<path d="M5815 5076 c-64 -28 -77 -115 -26 -167 l29 -29 257 0 257 0 29 29
c43 43 41 101 -5 147 l-34 34 -238 0 c-174 -1 -247 -4 -269 -14z"/>
<path d="M5789 4611 c-23 -23 -29 -38 -29 -71 0 -52 13 -76 50 -95 45 -23 490
-22 530 2 58 34 68 116 21 164 l-29 29 -257 0 -257 0 -29 -29z"/>
<path d="M7640 2617 c-122 -64 -122 -269 1 -335 92 -49 207 -12 250 82 21 46
25 120 8 163 -37 99 -161 142 -259 90z"/>
<path d="M2795 2641 c-76 -35 -115 -102 -115 -198 0 -78 30 -137 88 -174 59
-37 101 -45 169 -29 103 23 161 113 151 235 -12 141 -163 226 -293 166z"/>
<path d="M3941 2384 c-40 -33 -43 -89 -8 -130 20 -23 34 -28 84 -32 77 -5 124
10 163 54 25 29 30 43 30 84 l0 50 -119 0 c-114 0 -121 -1 -150 -26z"/>
</g>
</svg>
